<svg width="428" height="111" viewBox="0 0 428 111" fill="none" xmlns="http://www.w3.org/2000/svg">
<path fill-rule="evenodd" clip-rule="evenodd" d="M0 0L17.7219 4.17052C35.7781 8.34104 71.2219 16.6821 107 30.7977C142.778 45.2341 178.222 65.7659 214 69.9364C249.778 74.1069 285.222 61.5954 321 57.7457C356.778 53.5751 392.222 57.7457 410.278 59.6705L428 61.5954V111H410.278C392.222 111 356.778 111 321 111C285.222 111 249.778 111 214 111C178.222 111 142.778 111 107 111C71.2219 111 35.7781 111 17.7219 111H0V0Z" fill="#20DF7F" fill-opacity="0.09"/>
<path fill-rule="evenodd" clip-rule="evenodd" d="M0 44.4L14.2667 53.28C28.5333 62.16 57.0667 79.92 85.6 75.48C114.133 71.04 142.667 44.4 171.2 26.64C199.733 8.88 228.267 0 256.8 0C285.333 0 313.867 8.88 342.4 24.42C370.933 39.96 399.467 62.16 413.733 73.26L428 84.36V111H413.733C399.467 111 370.933 111 342.4 111C313.867 111 285.333 111 256.8 111C228.267 111 199.733 111 171.2 111C142.667 111 114.133 111 85.6 111C57.0667 111 28.5333 111 14.2667 111H0V44.4Z" fill="#E5E5E5" fill-opacity="0.13"/>
</svg>
